<svg width="1507" height="339" viewBox="0 0 1507 339" fill="none" xmlns="http://www.w3.org/2000/svg">
<path d="M524.412 65.5H576.208V269.136H524.412V190.882H467.087V269.136H415V65.5H467.087V140.845H524.412V65.5Z" fill="#141414"/>
<path d="M744.994 254.009C730.056 267.003 710.754 273.5 687.087 273.5C663.42 273.5 644.02 267.003 628.889 254.009C613.951 241.015 606.483 223.755 606.483 202.227V65.5H658.57V197.282C658.57 214.348 668.075 222.882 687.087 222.882C706.098 222.882 715.604 214.348 715.604 197.282V65.5H767.691V202.227C767.691 223.755 760.125 241.015 744.994 254.009Z" fill="#141414"/>
<path d="M880.709 65.5C908.838 65.5 932.311 75.2939 951.128 94.8818C970.139 114.276 979.645 138.421 979.645 167.318C979.645 196.215 970.139 220.458 951.128 240.045C932.311 259.439 908.838 269.136 880.709 269.136H797.776V65.5H880.709ZM880.709 218.809C894.87 218.809 906.413 214.155 915.336 204.845C924.26 195.342 928.722 182.833 928.722 167.318C928.722 151.803 924.26 139.391 915.336 130.082C906.413 120.579 894.87 115.827 880.709 115.827H851.319V218.809H880.709Z" fill="#141414"/>
<path d="M1086.73 65.5C1114.86 65.5 1138.33 75.2939 1157.15 94.8818C1176.16 114.276 1185.67 138.421 1185.67 167.318C1185.67 196.215 1176.16 220.458 1157.15 240.045C1138.33 259.439 1114.86 269.136 1086.73 269.136H1003.8V65.5H1086.73ZM1086.73 218.809C1100.89 218.809 1112.44 214.155 1121.36 204.845C1130.28 195.342 1134.74 182.833 1134.74 167.318C1134.74 151.803 1130.28 139.391 1121.36 130.082C1112.44 120.579 1100.89 115.827 1086.73 115.827H1057.34V218.809H1086.73Z" fill="#141414"/>
<path d="M1261.91 218.809H1332.04V269.136H1209.82V65.5H1261.91V218.809Z" fill="#141414"/>
<path d="M1403.14 220.264H1482V269.136H1351.05V65.5H1480.55V114.082H1403.14V142.3H1473.27V190.3H1403.14V220.264Z" fill="#141414"/>
<path fill-rule="evenodd" clip-rule="evenodd" d="M25.0165 74.9029C24.9912 90.6145 24.9712 106.326 25.1463 122.208C34.4525 123.142 43.5163 122.867 52.4609 120.876C73.4785 116.197 90.6887 106.372 103.433 90.5757L68.2028 55.3856C56.759 66.9251 42.1116 71.3163 25.1292 70.6315C25.0559 72.2068 25.0187 73.5548 25.0165 74.9029ZM69.2442 54.3062L104.371 89.3926C107.59 85.2561 110.513 80.7237 113.129 75.7814C113.928 74.2725 114.821 73.8505 116.471 73.8559C120.593 73.8694 124.715 73.8849 128.837 73.9003C148.335 73.9734 167.833 74.0465 187.33 73.9157C213.974 73.737 234.873 93.6643 235.602 120.261C236.31 146.129 215.472 166.424 191.465 165.758C178.739 165.405 166.001 165.488 153.262 165.571C146.539 165.614 139.816 165.658 133.095 165.638C131.339 165.632 130.312 166.188 129.309 167.581C111.151 192.818 92.9707 218.038 74.7904 243.259C66.2527 255.103 57.715 266.947 49.1796 278.792C43.6579 286.455 38.1561 294.132 32.6543 301.809C30.1366 305.322 27.6189 308.836 25.0993 312.347C25.0993 312.347 25.3394 312.456 25.3487 312.622C25.3536 312.71 25.3368 312.745 25.3199 312.758C25.3005 312.763 25.29 312.766 25.29 312.766C25.29 312.766 25.305 312.771 25.3199 312.758C25.3969 312.741 25.6134 312.696 25.8659 312.687C26.6046 312.724 27.0271 312.771 27.4496 312.818C29.5529 312.795 31.6561 312.767 33.7593 312.739C38.4076 312.677 43.0558 312.614 47.7041 312.604C50.2303 312.599 52.7564 312.595 55.2846 312.592C66.3855 312.576 77.5277 312.561 88.8926 312.372C111.611 281.02 134.007 249.915 156.338 218.764C157.476 217.175 158.627 216.585 160.568 216.603C170.727 216.698 180.887 216.721 191.045 216.618C220.499 216.319 245.351 205.328 263.836 182.495C287.691 153.029 293.198 119.925 279.674 84.1667C278.405 80.8122 276.746 77.6052 275.086 74.3982C274.318 72.9135 273.549 71.4288 272.82 69.9295C272.82 69.9295 272.869 69.9123 272.668 69.9031C271.997 69.1973 271.491 68.4943 270.992 67.8003C270.928 67.7123 270.865 67.6245 270.802 67.5369C251.184 40.4166 224.987 25.446 191.157 25.1584C169.393 24.9734 147.627 24.9926 125.861 25.0117C116.356 25.0201 106.852 25.0285 97.3473 25.0198C93.9752 25.0168 90.6031 25.0176 87.2918 25.0184C85.7787 25.0188 84.2782 25.0192 82.7963 25.0192C82.6987 25.1432 82.6243 25.2288 82.5692 25.2922C82.4862 25.3878 82.447 25.4329 82.438 25.4834C82.3203 26.1444 82.2137 26.8076 82.1128 27.4714C80.9209 35.3148 78.37 42.6559 73.6124 49.0663C72.2164 50.9472 70.7596 52.6922 69.2442 54.3062Z" fill="#141414"/>
<path d="M281.615 312.328C276.565 312.914 271.514 314.015 266.466 314C241.647 313.927 221.599 295.278 218.575 271.381C215.37 246.053 232.406 223.015 257.357 217.983C284.061 212.597 310.9 231.542 314.491 258.367C317.769 282.858 305.034 303.687 281.719 312.119C281.666 312.358 281.615 312.328 281.615 312.328Z" fill="#141414"/>
</svg>
